<?xml version="1.0" encoding="utf-8"?>
<!-- Generator: Adobe Illustrator 16.0.0, SVG Export Plug-In . SVG Version: 6.00 Build 0)  -->
<!DOCTYPE svg PUBLIC "-//W3C//DTD SVG 1.1//EN" "http://www.w3.org/Graphics/SVG/1.1/DTD/svg11.dtd">
<svg version="1.1" id="Layer_1" xmlns="http://www.w3.org/2000/svg" xmlns:xlink="http://www.w3.org/1999/xlink" x="0px" y="0px"
	 width="50px" height="50px" viewBox="0 0 50 50" enable-background="new 0 0 50 50" xml:space="preserve">
<path d="M34.719,25.91l5.844,0.268c0,0-5.404,0.68-6.056,0.875c-1.239,3.31-4.899,2.469-6.085,4.057
	c-1.866,2.501-5.296,3.35-10.641,1.895c-0.541,0.785-5.931,4.926-7.466,5.426s3.175-3.199,3.175-3.199s-2.259,1.568-3.789,1.974
	c-1.528,0.403,4.119-3.855,4.119-3.855s-2.454,1.022-3.782,1.106c-1.33,0.084,2.567-2.4,2.567-2.4s-1.201,0.092-1.656,0.092
	s-0.655-0.371,0.973-1.107c1.627-0.736,5.069-2.426,8.245-3.033c0.214-1.105-5.533-9.709-5.212-10.422
	c0.321-0.715,3.248-0.465,7.425,4.354c0.393-0.713-0.789-11.315,0.141-10.352c0.929,0.965,4.893,8.889,5.32,14.957
	c0.679,0.143,1.94-0.931,3.319-1.571C33.64,23.82,34.719,25.91,34.719,25.91z"/>
</svg>
